<?xml version="1.0" encoding="UTF-8" standalone="no"?>
<!-- Created with Inkscape (http://www.inkscape.org/) -->

<!-- NANOO LOGOMARK Version: 1.4.2 Author: Adnan Slamet Wibowo (Nanoolabs) Date: 2026-05-08 URL: https://nanoolabs.dev This vector graphic is the intellectual property of Nanoolabs. Modifications are prohibited without explicit permission. Built fast, simple, and scalable.-->

<svg
   width="512"
   height="512"
   viewBox="0 0 512 512"
   version="1.1"
   id="svg1"
   xmlns="http://www.w3.org/2000/svg"
   xmlns:svg="http://www.w3.org/2000/svg">
  <defs
     id="defs1" />
  <g
     id="layer1">
    <path
       id="text2"
       style="font-weight:bold;font-size:370.197px;font-family:'Adwaita Sans';-inkscape-font-specification:'Adwaita Sans';display:inline;fill:#ffffff;stroke-width:3.91838"
       d="m 362.91895,122.85059 c -20.14273,0 -36.71968,6.46915 -49.72852,19.4082 -7.50549,7.37073 -14.00842,16.43262 -19.51172,27.1836 v -41.31055 h -60.83398 l -0.45899,99.01172 62.4668,112.3789 -0.125,-95.66406 c 0.0405,12.27494 1.85502,-24.87017 5.45508,-33.30078 3.63689,-8.68063 8.74206,-15.06748 15.31641,-19.16211 6.57437,-4.09464 14.12747,-6.14259 22.66015,-6.14259 13.00884,0 23.00991,4.58584 30.00391,13.75783 7.13389,9.0082 10.3322,22.19733 10.70117,39.55467 l 0.82031,38.57422 60.95313,112.00977 -0.0859,-163.84961 c -0.0115,-21.94726 -3.21787,-40.53747 -9.65234,-55.76953 -6.29461,-15.23205 -15.24542,-26.77893 -26.85547,-34.64063 -11.61003,-8.02549 -25.31855,-12.03906 -41.125,-12.03906 z M 71.362304,128.38575 216.00879,388.4502 h 78.01367 L 148.66895,128.73926 Z" />
  </g>
</svg>
